<?xml version="1.0" encoding="UTF-8" standalone="no"?>
<!-- Created with Inkscape (http://www.inkscape.org/) -->

<svg
   xmlns:dc="http://purl.org/dc/elements/1.1/"
   xmlns:cc="http://creativecommons.org/ns#"
   xmlns:rdf="http://www.w3.org/1999/02/22-rdf-syntax-ns#"
   xmlns:svg="http://www.w3.org/2000/svg"
   xmlns="http://www.w3.org/2000/svg"
   xmlns:xlink="http://www.w3.org/1999/xlink"
   xmlns:sodipodi="http://sodipodi.sourceforge.net/DTD/sodipodi-0.dtd"
   xmlns:inkscape="http://www.inkscape.org/namespaces/inkscape"
   width="500mm"
   height="500mm"
   viewBox="0 0 1771.6535 1771.6535"
   id="svg2"
   version="1.1"
   inkscape:version="0.91 r13725"
   sodipodi:docname="growing_GROW_110120171.svg">
  <defs
     id="defs4">
    <linearGradient
       inkscape:collect="always"
       id="linearGradient10951">
      <stop
         style="stop-color:#225500;stop-opacity:1;"
         offset="0"
         id="stop10953" />
      <stop
         style="stop-color:#aad400;stop-opacity:1"
         offset="1"
         id="stop10955" />
    </linearGradient>
    <linearGradient
       inkscape:collect="always"
       id="linearGradient3501">
      <stop
         style="stop-color:#3f5d00;stop-opacity:1"
         offset="0"
         id="stop3503" />
      <stop
         style="stop-color:#abc837;stop-opacity:1"
         offset="1"
         id="stop3505" />
    </linearGradient>
    <linearGradient
       inkscape:collect="always"
       id="linearGradient3493">
      <stop
         style="stop-color:#466400;stop-opacity:1"
         offset="0"
         id="stop3495" />
      <stop
         style="stop-color:#ccff00;stop-opacity:1"
         offset="1"
         id="stop3497" />
    </linearGradient>
    <linearGradient
       inkscape:collect="always"
       id="linearGradient3485">
      <stop
         style="stop-color:#597800;stop-opacity:1"
         offset="0"
         id="stop3487" />
      <stop
         style="stop-color:#55d400;stop-opacity:1"
         offset="1"
         id="stop3489" />
    </linearGradient>
    <linearGradient
       inkscape:collect="always"
       id="linearGradient3477">
      <stop
         style="stop-color:#6a8a00;stop-opacity:1"
         offset="0"
         id="stop3479" />
      <stop
         style="stop-color:#88aa00;stop-opacity:1"
         offset="1"
         id="stop3481" />
    </linearGradient>
    <linearGradient
       inkscape:collect="always"
       id="linearGradient3469">
      <stop
         style="stop-color:#112b00;stop-opacity:1"
         offset="0"
         id="stop3471" />
      <stop
         style="stop-color:#88aa00;stop-opacity:1"
         offset="1"
         id="stop3473" />
    </linearGradient>
    <inkscape:path-effect
       effect="skeletal"
       id="path-effect3458"
       is_visible="true"
       pattern="M 0,41.902937 1e-5,0 321.736,20.951468 Z"
       copytype="single_stretched"
       prop_scale="1"
       scale_y_rel="false"
       spacing="0"
       normal_offset="0"
       tang_offset="0"
       prop_units="false"
       vertical_pattern="false"
       fuse_tolerance="0" />
    <inkscape:path-effect
       effect="skeletal"
       id="path-effect3439"
       is_visible="true"
       pattern="m 132.9804,633.41104 -371.50872,-10e-6 185.75436,-321.73599 z"
       copytype="single_stretched"
       prop_scale="1"
       scale_y_rel="false"
       spacing="0"
       normal_offset="0"
       tang_offset="0"
       prop_units="false"
       vertical_pattern="false"
       fuse_tolerance="0" />
    <inkscape:path-effect
       effect="skeletal"
       id="path-effect3421"
       is_visible="true"
       pattern="m 284.7541,-107.39958 c -38.23783,0 -55.03662,13.628428 -58.40605,31.640078 l 108.95478,7.095164 -2.93442,0.191057 0.0696,-0.0052 -157.45067,-0.0353 0.49219,11.813497 50.92773,-4.262497 0.0945,0.463115 0.009,-0.0011 c 3.70191,17.627998 20.55302,30.872723 58.24304,30.872723 43.22408,0 78.26377,-38.885797 78.26377,-38.885797 5e-5,0 -35.03964,-38.8858 -78.26372,-38.8858 z"
       copytype="single_stretched"
       prop_scale="1"
       scale_y_rel="false"
       spacing="0"
       normal_offset="0"
       tang_offset="0"
       prop_units="false"
       vertical_pattern="false"
       fuse_tolerance="0" />
    <inkscape:path-effect
       effect="skeletal"
       id="path-effect3412"
       is_visible="true"
       pattern="m 283.82824,-146.28565 c -38.23783,0 -55.03662,13.62842 -58.40605,31.64007 l 108.95478,7.09517 -2.93442,0.19105 0.0696,-0.005 -157.45067,-0.0353 0.49219,11.8135 50.92773,-4.262497 0.0945,0.463115 0.009,-0.0011 c 3.70191,17.627998 20.55302,30.872723 58.24304,30.872723 43.22408,0 78.26377,-38.885801 78.26377,-38.885801 5e-5,0 -35.03964,-38.88579 -78.26372,-38.88579 z"
       copytype="single_stretched"
       prop_scale="1"
       scale_y_rel="false"
       spacing="0"
       normal_offset="0"
       tang_offset="0"
       prop_units="false"
       vertical_pattern="false"
       fuse_tolerance="0" />
    <inkscape:path-effect
       effect="skeletal"
       id="path-effect3403"
       is_visible="true"
       pattern="m 354.26954,31.479272 c -38.23783,0 -55.03662,13.62842 -58.40606,31.640069 l 108.95479,7.095164 -2.93442,0.191057 0.0696,-0.0052 -157.45067,-0.0353 0.49218,11.813497 50.92774,-4.262497 0.0945,0.463115 0.009,-0.0011 c 3.70191,17.627998 20.55301,30.872723 58.24304,30.872723 43.22408,0 78.26377,-38.885797 78.26377,-38.885797 5e-5,0 -35.03964,-38.885801 -78.26372,-38.885801 z"
       copytype="single_stretched"
       prop_scale="1"
       scale_y_rel="false"
       spacing="0"
       normal_offset="0"
       tang_offset="0"
       prop_units="false"
       vertical_pattern="false"
       fuse_tolerance="0" />
    <inkscape:path-effect
       effect="skeletal"
       id="path-effect3394"
       is_visible="true"
       pattern="m 314.53168,-153.88845 c -38.23783,0 -55.03662,13.62842 -58.40605,31.64007 l 108.95478,7.09517 -2.93442,0.19106 0.0696,-0.005 -157.45067,-0.0353 0.49219,11.81349 50.92773,-4.26249 0.0945,0.46311 0.009,-0.001 c 3.70191,17.627998 20.55302,30.872723 58.24304,30.872723 43.22408,0 78.26377,-38.885793 78.26377,-38.885793 5e-5,0 -35.03964,-38.8858 -78.26372,-38.8858 z"
       copytype="single_stretched"
       prop_scale="1"
       scale_y_rel="false"
       spacing="0"
       normal_offset="0"
       tang_offset="0"
       prop_units="false"
       vertical_pattern="false"
       fuse_tolerance="0" />
    <inkscape:path-effect
       effect="skeletal"
       id="path-effect3373"
       is_visible="true"
       pattern="m 146.99335,-66.661844 c -71.923782,0 -103.521612,25.6345 -109.859382,59.5136695 L 242.07343,6.1975355 37.034358,19.551046 c 6.09433,34.15528 37.64101,60.07227 109.958992,60.07227 81.30271,0 147.21094,-73.1425805 147.21094,-73.1425805 0,0 -65.90823,-73.1425795 -147.21094,-73.1425795 z"
       copytype="single_stretched"
       prop_scale="1"
       scale_y_rel="false"
       spacing="0"
       normal_offset="0"
       tang_offset="0"
       prop_units="false"
       vertical_pattern="false"
       fuse_tolerance="0" />
    <inkscape:path-effect
       effect="skeletal"
       id="path-effect3364"
       is_visible="true"
       pattern="m 154.40022,-73.142857 c -71.92378,0 -103.52161,25.6345 -109.85938,59.51367 L 249.4803,-0.28347714 44.44123,13.070033 c 6.09433,34.15528 37.64101,60.07227 109.95899,60.07227 81.30271,0 147.21094,-73.14258014286 147.21094,-73.14258014286 0,0 -65.90823,-73.14257985714 -147.21094,-73.14257985714 z"
       copytype="single_stretched"
       prop_scale="1"
       scale_y_rel="false"
       spacing="0"
       normal_offset="0"
       tang_offset="0"
       prop_units="false"
       vertical_pattern="false"
       fuse_tolerance="0" />
    <inkscape:path-effect
       effect="skeletal"
       id="path-effect3355"
       is_visible="true"
       pattern="m 173.84326,-121.28752 c -71.92378,0 -103.521612,25.634497 -109.859382,59.513667 l 204.939462,13.34571 -205.039072,13.35351 c 6.09433,34.1552804 37.641012,60.07227 109.958992,60.07227 81.30271,0 147.21094,-73.14258 147.21094,-73.14258 0,0 -65.90823,-73.142577 -147.21094,-73.142577 z"
       copytype="single_stretched"
       prop_scale="1"
       scale_y_rel="false"
       spacing="0"
       normal_offset="0"
       tang_offset="0"
       prop_units="false"
       vertical_pattern="false"
       fuse_tolerance="0" />
    <linearGradient
       inkscape:collect="always"
       xlink:href="#linearGradient3469"
       id="linearGradient3475"
       x1="223.132"
       y1="621.83777"
       x2="269.42496"
       y2="111.68951"
       gradientUnits="userSpaceOnUse" />
    <linearGradient
       inkscape:collect="always"
       xlink:href="#linearGradient3477"
       id="linearGradient3483"
       x1="309.23688"
       y1="252.42007"
       x2="394.16055"
       y2="46.651924"
       gradientUnits="userSpaceOnUse" />
    <linearGradient
       inkscape:collect="always"
       xlink:href="#linearGradient3485"
       id="linearGradient3491"
       x1="322.19891"
       y1="325.56293"
       x2="500.88968"
       y2="112.61537"
       gradientUnits="userSpaceOnUse" />
    <linearGradient
       inkscape:collect="always"
       xlink:href="#linearGradient3493"
       id="linearGradient3499"
       x1="266.64737"
       y1="388.52133"
       x2="131.47197"
       y2="100.5792"
       gradientUnits="userSpaceOnUse" />
    <linearGradient
       inkscape:collect="always"
       xlink:href="#linearGradient3501"
       id="linearGradient3507"
       x1="281.46112"
       y1="447.77631"
       x2="595.32733"
       y2="254.27179"
       gradientUnits="userSpaceOnUse" />
    <linearGradient
       inkscape:collect="always"
       xlink:href="#linearGradient10951"
       id="linearGradient10957"
       x1="296.18182"
       y1="856.10547"
       x2="294.59573"
       y2="702.25256"
       gradientUnits="userSpaceOnUse" />
    <linearGradient
       inkscape:collect="always"
       xlink:href="#linearGradient10951"
       id="linearGradient11020"
       gradientUnits="userSpaceOnUse"
       x1="296.18182"
       y1="856.10547"
       x2="294.59573"
       y2="702.25256" />
  </defs>
  <sodipodi:namedview
     id="base"
     pagecolor="#ffffff"
     bordercolor="#666666"
     borderopacity="1.0"
     inkscape:pageopacity="0.0"
     inkscape:pageshadow="2"
     inkscape:zoom="0.21731111"
     inkscape:cx="885.82677"
     inkscape:cy="885.82677"
     inkscape:document-units="px"
     inkscape:current-layer="g10987"
     showgrid="false"
     inkscape:snap-bbox="true"
     inkscape:bbox-paths="true"
     inkscape:bbox-nodes="true"
     inkscape:snap-bbox-edge-midpoints="true"
     inkscape:snap-bbox-midpoints="true"
     inkscape:object-paths="true"
     inkscape:object-nodes="false"
     inkscape:snap-global="false"
     inkscape:window-width="1280"
     inkscape:window-height="977"
     inkscape:window-x="-4"
     inkscape:window-y="-4"
     inkscape:window-maximized="1"
     showborder="true" />
  <metadata
     id="metadata7">
    <rdf:RDF>
      <cc:Work
         rdf:about="">
        <dc:format>image/svg+xml</dc:format>
        <dc:type
           rdf:resource="http://purl.org/dc/dcmitype/StillImage" />
        <dc:title></dc:title>
      </cc:Work>
    </rdf:RDF>
  </metadata>
  <g
     inkscape:label="Camada 1"
     inkscape:groupmode="layer"
     id="layer1"
     transform="translate(0,719.29134)">
    <g
       id="g11001"
       transform="matrix(1.917202,0,0,1.917202,246.70008,-847.24899)">
      <g
         id="g10987">
        <g
           id="g11038">
          <g
             id="g11022">
            <path
               style="opacity:1;fill:#ffcc00;fill-opacity:1;fill-rule:nonzero;stroke:none;stroke-width:3;stroke-linecap:round;stroke-linejoin:miter;stroke-miterlimit:4;stroke-dasharray:none;stroke-dashoffset:0;stroke-opacity:1"
               d="M 333.36531,168.83004 A 379.98901,379.98901 0 0 0 -46.625117,548.81836 379.98901,379.98901 0 0 0 333.36531,928.80668 379.98901,379.98901 0 0 0 713.35364,548.81836 379.98901,379.98901 0 0 0 333.36531,168.83004 Z m 0,37.74773 A 342.24174,342.24174 0 0 1 675.60591,548.81836 342.24174,342.24174 0 0 1 333.36531,891.06105 342.24174,342.24174 0 0 1 -8.877388,548.81836 342.24174,342.24174 0 0 1 333.36531,206.57777 Z"
               id="path10982"
               inkscape:connector-curvature="0" />
            <g
               id="g10970"
               transform="matrix(1.0159986,0,0,1.0159986,-46.778549,-12.819654)">
              <g
                 id="g10959">
                <g
                   id="g3516"
                   transform="translate(64.810127,164.80289)">
                  <g
                     id="g3509">
                    <path
                       style="opacity:1;fill:url(#linearGradient3491);fill-opacity:1;fill-rule:nonzero;stroke:none;stroke-width:3;stroke-linecap:round;stroke-linejoin:miter;stroke-miterlimit:4;stroke-dasharray:none;stroke-dashoffset:0;stroke-opacity:1"
                       d="m 407.31169,196.34733 c -4.62182,3.73422 -11.58896,9.01078 -15.9693,12.44105 -14.89829,11.63018 -25.32375,20.47349 -32.54195,30.75317 -6.80275,9.68801 -8.87832,18.45041 -7.17672,26.261 19.57269,-9.54585 39.19627,-18.14723 57.62437,-28.74875 0,0 1e-5,0 1e-5,0 9.61931,-5.53469 18.89942,-11.60331 27.36639,-18.6849 8.28575,-6.92991 15.80024,-14.85748 21.89883,-23.84933 6.48863,-9.55593 11.34164,-20.31732 14.44555,-31.62589 -0.27197,1.4717 -0.57352,2.93944 -0.90478,4.40184 0.008,-0.0347 0.0154,-0.0695 0.0231,-0.10419 -2.68568,9.91804 -6.73733,19.46946 -12.13532,28.21017 -5.79886,9.38964 -13.09655,17.80951 -21.25038,25.24449 -8.32525,7.59129 -17.50979,14.1945 -27.02732,20.22171 -20.07421,12.71251 -41.57447,22.98278 -62.36743,34.47779 0,0 0,0 0,0 -21.01341,11.61697 -41.60136,24.55878 -58.42685,41.68885 2.98569,2.57978 5.95742,5.17292 8.91535,7.77925 14.45301,-16.5712 33.46195,-30.00704 53.33734,-42.55004 1.86303,-1.16873 3.73701,-2.32946 5.61969,-3.48494 0.11547,0.11311 0.23092,0.22624 0.34636,0.33938 0,0 0.0115,-0.007 0.0115,-0.007 5.5749,5.37544 13.9546,8.57869 25.56606,8.29612 11.21035,-0.27281 27.50016,-3.9749 47.29697,-14.49559 7.44886,-3.95588 15.75233,-9.23282 24.299,-16.17482 2.92122,-2.37274 5.74351,-4.89584 8.45427,-7.55781 10.62113,-10.41831 18.7085,-22.87393 24.03726,-35.98945 6.55104,-16.45622 7.7613,-32.21223 6.36282,-45.31276 0,0 0,-1e-5 0,-1e-5 -1.80415,-16.08117 -7.23148,-28.17274 -11.41978,-35.65452 -4.29223,-7.66744 -7.65502,-11.46962 -7.65502,-11.46962 -0.008,-0.12495 -2.65317,4.48178 -6.93794,11.44853 -4.17409,6.78682 -10.55565,16.82361 -17.97396,25.62636 0,0 -1e-5,1e-5 -1e-5,1e-5 -6.08148,7.21541 -12.88309,13.99344 -20.05214,19.75452 -5.82946,4.84695 -11.71548,9.10004 -18.44608,14.49358 -1.70873,1.37052 -3.50644,2.80728 -5.31997,4.27253 0,0 8e-5,-3.7e-4 8e-5,-3.7e-4 z"
                       id="path3392"
                       inkscape:connector-curvature="0" />
                    <path
                       style="opacity:1;fill:url(#linearGradient3507);fill-opacity:1;fill-rule:nonzero;stroke:none;stroke-width:3;stroke-linecap:round;stroke-linejoin:miter;stroke-miterlimit:4;stroke-dasharray:none;stroke-dashoffset:0;stroke-opacity:1"
                       d="m 434.50553,321.98822 c -6.63572,7.95022 -13.29746,14.7894 -19.34651,20.57546 -17.12401,16.67964 -23.71669,20.54998 -34.86939,32.76379 -8.37878,9.17599 -12.85284,17.27699 -13.22733,25.23847 24.50515,-6.54576 48.08226,-17.00885 68.55925,-32.11803 22.68153,-16.69791 41.32242,-39.28088 53.62522,-65.15868 0,0 0,0 0,0 6.87836,-14.44931 11.82473,-29.79796 15.13493,-45.5971 -0.26754,1.89761 -0.55879,3.79198 -0.87435,5.68247 0.007,-0.0449 0.0146,-0.0898 0.0218,-0.13467 -2.8076,13.98632 -6.94341,27.66981 -12.64037,40.76349 -11.54402,26.53167 -29.67564,50.16305 -52.37467,68.10338 0,0 -2e-5,0 -2e-5,0 -22.61566,17.87427 -49.3413,30.19566 -77.18557,37.64789 -29.7906,7.97316 -60.89597,10.56772 -91.69937,9.11039 0.13555,3.9486 0.28193,7.89758 0.43918,11.84685 31.57379,0.12476 63.25167,-3.95789 93.30186,-13.33234 2.71717,-0.84617 5.42086,-1.73856 8.10854,-2.67684 0.10594,0.12932 0.21195,0.25859 0.31808,0.3878 0,0 0.0172,-0.006 0.0172,-0.006 4.95044,5.90183 14.54096,10.11688 29.57596,9.40235 14.48303,-0.68831 36.3727,-6.35397 60.45372,-22.86864 10.76982,-7.50181 21.91051,-17.31612 32.33495,-29.79406 13.95555,-16.70462 23.16796,-35.50777 28.30473,-54.0775 9.30165,-34.90363 4.42032,-64.94156 -1.47582,-84.29186 -5.98707,-19.64875 -12.89825,-29.92051 -12.89825,-29.92051 -0.0128,-0.39977 -5.51412,11.51247 -13.94253,28.02939 -8.55645,16.76785 -20.42133,38.67945 -34.92799,58.67372 -7.50563,10.55305 -15.89966,21.16837 -24.73327,31.75183 0,0 3e-4,-2.5e-4 3e-4,-2.5e-4 z"
                       id="path3401"
                       inkscape:connector-curvature="0" />
                    <path
                       style="opacity:1;fill:url(#linearGradient3483);fill-opacity:1;fill-rule:nonzero;stroke:none;stroke-width:3;stroke-linecap:round;stroke-linejoin:miter;stroke-miterlimit:4;stroke-dasharray:none;stroke-dashoffset:0;stroke-opacity:1"
                       d="m 330.2634,76.416153 c 0.31522,-0.906327 -8.54251,23.822257 -7.89813,21.97881 -5.62517,16.174227 -9.09541,28.369067 -9.45406,39.728587 -0.34282,10.85841 2.41226,18.91649 7.68448,24.55418 11.02774,-16.49876 22.06694,-32.69998 31.37709,-49.82722 5.14791,-9.46454 9.76671,-19.206576 13.49116,-29.300253 3.81174,-10.32662 6.68869,-21.038936 8.38133,-31.987216 l 0,-8e-6 c 1.835,-11.855768 2.27922,-23.988747 1.43754,-36.081961 -0.0143,-0.204895 -0.0289,-0.409779 -0.0439,-0.614645 0.0328,0.202791 0.0652,0.405643 0.0973,0.608582 0.19599,1.240485 0.37846,2.48378 0.54722,3.729581 l -0.0145,-0.103105 c 0.99702,10.860006 0.95165,21.81811 -0.2407,32.657412 -1.22437,11.130228 -3.65504,22.117228 -7.06583,32.781807 l -1e-5,8e-6 c -3.33274,10.42051 -7.58403,20.532658 -12.38521,30.362548 -9.76573,19.9942 -21.72225,38.82116 -33.21183,57.87508 -11.9308,19.7857 -23.40559,39.95256 -31.94363,61.4218 3.74984,1.2269 1.94015,17.27831 5.68127,18.52665 6.88118,-20.71052 22.46216,-55.70359 33.07976,-75.8389 1.16283,-2.19758 2.33394,-4.39696 3.50926,-6.59947 0.1564,0.04 0.31275,0.0801 0.46914,0.12015 l 0.006,-0.012 c 7.27145,1.79983 15.7706,0.50906 25.15902,-5.21966 9.14646,-5.58108 20.32295,-16.21793 31.02555,-33.78347 4.83997,-7.9783 9.6867,-17.78836 13.7372,-29.39374 0.65209,-1.86827 1.25817,-3.752163 1.81719,-5.64954 4.03116,-13.718974 5.3005,-27.649156 4.38477,-40.827389 -1.20407,-16.707088 -5.92119,-31.109808 -11.72774,-42.640699 l 0,-5e-6 c -6.95141,-13.74648559 -15.33851,-23.403383 -21.47429,-29.418709 -6.21579,-6.09377 -10.4457,-8.914995 -10.4457,-8.914995 -0.0289,-0.08777 -1.51744,4.955877 -3.83884,12.862815 -2.2694,7.7298264 -5.64321,19.1652642 -9.64904,30.628984 l 0,7e-6 c -3.47983,9.9621 -7.23175,19.698801 -11.45024,29.948392 -3.19905,7.861252 -6.63004,16.108556 -9.73474,24.727403 -0.43615,1.217075 -0.87242,2.450543 -1.30679,3.70063 l -3e-5,-3.3e-4 z"
                       id="path3410"
                       inkscape:connector-curvature="0"
                       sodipodi:nodetypes="ccsccccccccccsccssccccccsccccccscsccccccc" />
                    <path
                       style="opacity:1;fill:url(#linearGradient3499);fill-opacity:1;fill-rule:nonzero;stroke:none;stroke-width:3;stroke-linecap:round;stroke-linejoin:miter;stroke-miterlimit:4;stroke-dasharray:none;stroke-dashoffset:0;stroke-opacity:1"
                       d="m 139.35256,244.8252 c 1.74964,9.0006 3.68079,17.33394 5.90381,25.22548 6.94548,25.73419 17.17347,43.95219 27.67232,55.04108 10.43664,11.02319 20.39193,14.33984 28.42039,12.90439 -12.0963,-23.92766 -18.47825,-49.71605 -23.08504,-75.22267 0,0 -1e-5,-1e-5 -1e-5,-1e-5 -4.94097,-27.15023 -8.01585,-54.32446 -13.76221,-81.02866 0,0 0,-1e-5 0,-1e-5 -2.17724,-10.11695 -4.74137,-20.16669 -7.97702,-30.02072 0.6526,1.57957 1.28795,3.16711 1.90717,4.76176 0,1e-5 -0.0447,-0.11326 -0.0447,-0.11324 2.84971,8.22525 5.26888,16.60347 7.41525,25.04116 6.75118,26.53977 10.859,53.67352 16.75089,80.41405 5.78537,26.25629 13.34831,52.46114 26.86474,75.70165 0,0 1e-5,1e-5 1e-5,1e-5 6.84608,11.77144 15.21826,22.67183 24.9995,32.14672 10.87135,10.53089 23.42651,19.26609 36.85831,26.24406 1.56046,-3.62681 3.13855,-7.24561 4.73431,-10.85618 -12.57874,-5.82485 -24.45184,-13.22199 -34.86238,-22.3375 0,0 0,0 0,0 -9.56086,-8.33798 -17.98087,-18.20898 -25.06313,-29.07545 0,0 0,-10e-6 0,-10e-6 -0.62902,-0.95941 -1.24726,-1.92669 -1.85506,-2.90152 0.1094,-0.12053 0.21889,-0.24093 0.32847,-0.36121 0,0 -0.008,-0.0126 -0.008,-0.0126 5.3742,-6.00415 8.22897,-14.74704 9.05112,-26.65123 0.78092,-11.30713 -0.18549,-28.34775 -3.79275,-50.11038 -1.07083,-6.99994 -2.42989,-15.05348 -4.09007,-23.61514 -3.8656,-19.93519 -10.31463,-39.06114 -19.03995,-56.44377 0,0 -1e-5,0 -1e-5,0 -7.52505,-15.01974 -16.38651,-27.58441 -25.51621,-37.5739 -9.67621,-10.61002 -19.02061,-17.37847 -25.88447,-21.49174 -6.81684,-4.08508 -11.02805,-5.57773 -11.02805,-5.57773 -0.0582,-0.0794 0.4381,4.55716 0.87434,11.95715 0.48603,8.24447 0.71926,17.13176 0.53482,29.9317 -0.0896,6.53072 -0.7832,29.0369 -0.79404,38.48721 0,0 0,1e-5 0,1e-5 -0.0212,16.24595 0.58036,35.43606 4.48793,55.53765 0,0 -3e-5,-4.5e-4 -3e-5,-4.5e-4 z"
                       id="path3419"
                       inkscape:connector-curvature="0" />
                    <path
                       style="opacity:1;fill:url(#linearGradient3475);fill-opacity:1;fill-rule:nonzero;stroke:none;stroke-width:3;stroke-linecap:round;stroke-linejoin:miter;stroke-miterlimit:4;stroke-dasharray:none;stroke-dashoffset:0;stroke-opacity:1"
                       d="m 243.23823,606.68818 -40.21244,11.78204 c -3.52034,-13.86036 -5.40432,-28.12884 -5.50441,-42.43975 -0.0694,-13.35246 1.39754,-26.502 4.12381,-39.2215 5.4913,-25.18551 15.23437,-48.1942 26.03514,-69.70007 10.95709,-21.97207 22.88063,-42.6931 33.24028,-63.73107 10.24416,-20.91542 19.15967,-42.21538 23.65946,-64.42791 7.08013,-34.24508 6.30568,-70.441 2.88886,-106.36106 -3.43987,-35.87301 -9.48867,-71.81085 -12.48882,-107.93732 5.98483,35.75338 14.94543,70.81784 21.4275,106.70135 6.52032,35.9464 10.38901,73.05656 6.0069,110.45052 0,0 0,1e-5 0,1e-5 -3.02046,24.78901 -10.57597,48.62342 -19.54426,71.25774 -8.9727,22.78353 -19.20494,44.58833 -27.85905,66.31369 0,0 -1e-5,1e-5 -1e-5,1e-5 -8.41176,21.30324 -15.53079,42.54022 -18.0953,63.58074 -1.33287,10.57272 -1.63151,21.13761 -0.68293,31.40648 0.99061,10.99625 3.40328,21.87772 7.00527,32.3261 z"
                       id="path3456"
                       inkscape:path-effect="#path-effect3458"
                       inkscape:original-d="M 223.13201,612.5792 C 192.97125,509.63966 278.40768,434.68672 293.49729,340.37667 305.12579,267.69853 283.8838,195.88106 274.98011,124.65154"
                       inkscape:connector-curvature="0" />
                  </g>
                </g>
                <g
                   id="g10324"
                   transform="matrix(0.68603349,0,0,0.68603349,101.23107,239.00888)">
                  <path
                     style="opacity:1;fill:url(#linearGradient10957);fill-opacity:1;fill-rule:nonzero;stroke:none;stroke-width:3;stroke-linecap:round;stroke-linejoin:miter;stroke-miterlimit:4;stroke-dasharray:none;stroke-dashoffset:0;stroke-opacity:1"
                     d="m 312.43752,715.68126 c -4.91678,0.29714 -11.98178,9.38324 -13.04624,10.36328 -2.24352,2.06563 -5.28948,-3.05965 -6.89011,-1.58594 -1.05948,0.97547 -1.18179,16.35723 -5.16758,12.6875 -1.43039,-1.31697 -11.99429,-11.13172 -15.50487,-9.51562 -0.42698,0.19656 -4.19576,6.34375 -5.16758,6.34375 -2.27825,0 -4.24365,-10.25088 -5.16758,-11.10156 -2.13007,-1.96115 -0.73651,12.6875 -3.44718,12.6875 -1.28404,0 -0.57405,-2.64317 -1.72253,-3.17188 -1.59154,-0.73267 -3.40883,-0.7763 -5.16758,-1.58594 -7.76101,-3.5728 -3.87425,13.47978 -5.16758,15.86133 -1.26306,2.32578 -5.80388,0.98601 -8.71023,-0.60547 -0.007,0.22608 0.005,0.43911 0.0955,0.60547 1.14965,2.11696 12.04918,7.94144 6.89223,12.68946 -4.11618,3.78978 -20.45294,-4.75977 -20.67245,-4.75977 -0.83147,0 0.91176,8.67811 0,9.51758 -0.45652,0.4203 -5.88565,3.63526 -6.89224,3.17187 -3.60219,-1.65827 -8.59344,-15.87899 -12.05769,-12.68945 -1.4356,1.32176 1.4356,6.60988 0,7.93164 -0.86135,0.79306 -4.30836,-0.79305 -5.16971,0 -4.35258,4.00744 5.48822,12.68945 -5.16758,12.68945 -0.76632,0 -5.82104,0.49215 -6.89011,0 -19.01828,-8.7551 -1.47577,-13.36785 -10.33729,-17.44726 -1.18533,-0.54567 -8.76526,-6.06465 -10.33516,-3.17383 -2.91143,5.36113 6.3118,11.63597 -1.72465,19.03516 -1.4356,1.32176 -7.17704,-1.32176 -8.61264,0 -2.51063,2.31155 7.54138,11.10156 -1.72253,11.10156 -6.01074,0 -11.18421,-7.53981 -17.2274,-4.75781 -1.53159,0.70507 -6.65103,6.56386 -8.61263,4.75781 -1.91838,-1.76626 3.34189,-14.22692 -3.44718,-11.10156 -4.54958,2.09441 -1.53422,7.843 -5.16758,9.51562 -3.01052,1.38591 -0.64353,-1.58594 -3.44506,-1.58594 -0.51379,0 0.71493,12.03121 0,12.68946 -3.88588,3.57773 -6.93471,0.77244 -8.61263,0 -7.3372,-3.3777 -6.5731,4.75781 -6.89223,4.75781 -2.844462,0 -7.685562,-5.124 -10.335172,-6.34375 -6.66749,-3.06939 -10.109995,17.38124 -12.059816,20.61914 0,0.94924 0.791111,3.56675 1.622825,6.34375 l 363.922143,0 c 0.0125,-0.0477 0.0243,-0.0956 0.0361,-0.14258 0.0175,0.0477 0.0348,0.0937 0.053,0.14258 l 9.91939,0 c 1.47496,-1.358 1.69462,-0.73121 1.71192,0 l 0.83792,0 c 0.23591,-0.39923 0.50641,-0.86998 0.89521,-1.58594 1.51888,-2.79686 1.4647,-0.87007 1.65889,1.58594 l 19.37843,0 c 0.0859,-2.07154 -0.36486,-5.43803 -0.36486,-6.34375 0,-2.61538 1.39795,-9.667 -1.72253,-11.10352 -1.28075,-0.58959 -6.99383,0.31877 -10.13576,1.45899 0.92429,-1.05364 1.77996,-2.32962 1.521,-3.04492 -1.81773,-5.02079 -7.05243,-3.32132 -10.33517,-6.34375 -0.90796,-0.83596 -0.65415,-2.5161 -1.72252,-3.17188 -3.50617,-2.15209 -8.89675,-0.22233 -12.05346,1.78711 -0.002,-0.0607 -0.007,-0.14788 -0.007,-0.20117 0,-9.57969 -6.73768,-16.10254 -8.29232,-9.57422 -0.0378,-0.62139 -0.13153,-1.18166 -0.32032,-1.5293 -1.2066,-2.22184 -4.96848,-4.57254 -6.89223,-6.34375 -6.41893,-5.90993 -9.03631,3.17188 -13.78234,3.17188 -0.15758,0 0.23959,-10.88293 0,-11.10352 -3.29335,-3.0322 -8.63788,3.17188 -10.33517,3.17188 -0.16239,0 -1.12943,-8.96956 -3.44505,-11.10156 -1.80406,-1.661 -1.82064,4.85846 -1.75859,7.90625 -0.81889,-0.69815 -2.27816,0.0234 -3.41112,0.0234 -2.67193,0 -9.44157,1.17457 -6.89011,0 9.08277,-4.18127 -6.1029,-11.10156 -8.61264,-11.10156 2.17049,-0.99919 7.63027,-7.25018 5.16758,-9.51758 -2.28515,-2.10394 -8.93465,1.58594 -10.33728,1.58594 -2.92806,0 0.34792,-6.02342 -1.72253,-7.92969 -2.89151,-2.66222 -4.23994,8.66155 -5.16758,9.51563 -3.21546,2.96048 -1.18704,-7.92969 -1.72253,-7.92969 -0.22783,0 -8.61974,14.26885 -15.50487,7.92969 -2.48491,-2.28787 1.63464,-11.26535 0,-14.27539 -1.1324,-2.08522 -6.39476,-5.43161 -6.89011,-6.34375 -0.51362,-0.94578 0.63706,-2.29206 0,-3.17188 -3.99965,-5.52373 -10.81908,2.14257 -11.8986,5.54492 0.38241,-1.90389 1.51335,-8.76094 -0.16122,-10.30273 -3.48592,-3.2095 -9.64635,8.56388 -12.05769,6.34375 -1.21815,-1.12155 0.54476,-3.25309 0,-4.75781 -0.61144,-1.68886 -4.63039,-5.84916 -5.1697,-6.34571 -0.71149,-0.65506 -1.54812,-0.90072 -2.45864,-0.8457 z m -75.15906,30.37695 c 0.0324,-1.06204 0.72832,-2.5664 -1.62706,-2.5664 -1.85155,0 -0.58376,1.35578 1.62706,2.5664 z"
                     id="path10946"
                     inkscape:connector-curvature="0" />
                </g>
                <g
                   transform="matrix(-0.68603349,0,0,0.68603349,642.19337,239.00888)"
                   id="g11016">
                  <path
                     inkscape:connector-curvature="0"
                     id="path11018"
                     d="m 312.43752,715.68126 c -4.91678,0.29714 -11.98178,9.38324 -13.04624,10.36328 -2.24352,2.06563 -5.28948,-3.05965 -6.89011,-1.58594 -1.05948,0.97547 -1.18179,16.35723 -5.16758,12.6875 -1.43039,-1.31697 -11.99429,-11.13172 -15.50487,-9.51562 -0.42698,0.19656 -4.19576,6.34375 -5.16758,6.34375 -2.27825,0 -4.24365,-10.25088 -5.16758,-11.10156 -2.13007,-1.96115 -0.73651,12.6875 -3.44718,12.6875 -1.28404,0 -0.57405,-2.64317 -1.72253,-3.17188 -1.59154,-0.73267 -3.40883,-0.7763 -5.16758,-1.58594 -7.76101,-3.5728 -3.87425,13.47978 -5.16758,15.86133 -1.26306,2.32578 -5.80388,0.98601 -8.71023,-0.60547 -0.007,0.22608 0.005,0.43911 0.0955,0.60547 1.14965,2.11696 12.04918,7.94144 6.89223,12.68946 -4.11618,3.78978 -20.45294,-4.75977 -20.67245,-4.75977 -0.83147,0 0.91176,8.67811 0,9.51758 -0.45652,0.4203 -5.88565,3.63526 -6.89224,3.17187 -3.60219,-1.65827 -8.59344,-15.87899 -12.05769,-12.68945 -1.4356,1.32176 1.4356,6.60988 0,7.93164 -0.86135,0.79306 -4.30836,-0.79305 -5.16971,0 -4.35258,4.00744 5.48822,12.68945 -5.16758,12.68945 -0.76632,0 -5.82104,0.49215 -6.89011,0 -19.01828,-8.7551 -1.47577,-13.36785 -10.33729,-17.44726 -1.18533,-0.54567 -8.76526,-6.06465 -10.33516,-3.17383 -2.91143,5.36113 6.3118,11.63597 -1.72465,19.03516 -1.4356,1.32176 -7.17704,-1.32176 -8.61264,0 -2.51063,2.31155 7.54138,11.10156 -1.72253,11.10156 -6.01074,0 -11.18421,-7.53981 -17.2274,-4.75781 -1.53159,0.70507 -6.65103,6.56386 -8.61263,4.75781 -1.91838,-1.76626 3.34189,-14.22692 -3.44718,-11.10156 -4.54958,2.09441 -1.53422,7.843 -5.16758,9.51562 -3.01052,1.38591 -0.64353,-1.58594 -3.44506,-1.58594 -0.51379,0 0.71493,12.03121 0,12.68946 -3.88588,3.57773 -6.93471,0.77244 -8.61263,0 -7.3372,-3.3777 -6.5731,4.75781 -6.89223,4.75781 -2.844462,0 -7.685562,-5.124 -10.335172,-6.34375 -6.66749,-3.06939 -10.109995,17.38124 -12.059816,20.61914 0,0.94924 0.791111,3.56675 1.622825,6.34375 l 363.922143,0 c 0.0125,-0.0477 0.0243,-0.0956 0.0361,-0.14258 0.0175,0.0477 0.0348,0.0937 0.053,0.14258 l 9.91939,0 c 1.47496,-1.358 1.69462,-0.73121 1.71192,0 l 0.83792,0 c 0.23591,-0.39923 0.50641,-0.86998 0.89521,-1.58594 1.51888,-2.79686 1.4647,-0.87007 1.65889,1.58594 l 19.37843,0 c 0.0859,-2.07154 -0.36486,-5.43803 -0.36486,-6.34375 0,-2.61538 1.39795,-9.667 -1.72253,-11.10352 -1.28075,-0.58959 -6.99383,0.31877 -10.13576,1.45899 0.92429,-1.05364 1.77996,-2.32962 1.521,-3.04492 -1.81773,-5.02079 -7.05243,-3.32132 -10.33517,-6.34375 -0.90796,-0.83596 -0.65415,-2.5161 -1.72252,-3.17188 -3.50617,-2.15209 -8.89675,-0.22233 -12.05346,1.78711 -0.002,-0.0607 -0.007,-0.14788 -0.007,-0.20117 0,-9.57969 -6.73768,-16.10254 -8.29232,-9.57422 -0.0378,-0.62139 -0.13153,-1.18166 -0.32032,-1.5293 -1.2066,-2.22184 -4.96848,-4.57254 -6.89223,-6.34375 -6.41893,-5.90993 -9.03631,3.17188 -13.78234,3.17188 -0.15758,0 0.23959,-10.88293 0,-11.10352 -3.29335,-3.0322 -8.63788,3.17188 -10.33517,3.17188 -0.16239,0 -1.12943,-8.96956 -3.44505,-11.10156 -1.80406,-1.661 -1.82064,4.85846 -1.75859,7.90625 -0.81889,-0.69815 -2.27816,0.0234 -3.41112,0.0234 -2.67193,0 -9.44157,1.17457 -6.89011,0 9.08277,-4.18127 -6.1029,-11.10156 -8.61264,-11.10156 2.17049,-0.99919 7.63027,-7.25018 5.16758,-9.51758 -2.28515,-2.10394 -8.93465,1.58594 -10.33728,1.58594 -2.92806,0 0.34792,-6.02342 -1.72253,-7.92969 -2.89151,-2.66222 -4.23994,8.66155 -5.16758,9.51563 -3.21546,2.96048 -1.18704,-7.92969 -1.72253,-7.92969 -0.22783,0 -8.61974,14.26885 -15.50487,7.92969 -2.48491,-2.28787 1.63464,-11.26535 0,-14.27539 -1.1324,-2.08522 -6.39476,-5.43161 -6.89011,-6.34375 -0.51362,-0.94578 0.63706,-2.29206 0,-3.17188 -3.99965,-5.52373 -10.81908,2.14257 -11.8986,5.54492 0.38241,-1.90389 1.51335,-8.76094 -0.16122,-10.30273 -3.48592,-3.2095 -9.64635,8.56388 -12.05769,6.34375 -1.21815,-1.12155 0.54476,-3.25309 0,-4.75781 -0.61144,-1.68886 -4.63039,-5.84916 -5.1697,-6.34571 -0.71149,-0.65506 -1.54812,-0.90072 -2.45864,-0.8457 z m -75.15906,30.37695 c 0.0324,-1.06204 0.72832,-2.5664 -1.62706,-2.5664 -1.85155,0 -0.58376,1.35578 1.62706,2.5664 z"
                     style="opacity:1;fill:url(#linearGradient11020);fill-opacity:1;fill-rule:nonzero;stroke:none;stroke-width:3;stroke-linecap:round;stroke-linejoin:miter;stroke-miterlimit:4;stroke-dasharray:none;stroke-dashoffset:0;stroke-opacity:1" />
                </g>
              </g>
            </g>
          </g>
        </g>
      </g>
    </g>
  </g>
</svg>
